<svg fill="none" xmlns="http://www.w3.org/2000/svg" viewBox="0 0 171 32"><path d="M60.4888 20.8161v6.6817l-20.2219.0201-.0394-22.9836h6.5309v16.3019l13.7304-.0201ZM85.9628 20.796v6.6817l-22.5038.0403-.0393-23.00381 22.4841-.04025v6.68176l-15.9533.0201v1.4893l15.9729-.0201v6.6757l-15.9729.0202v1.4893l16.0123-.0342ZM117.869 4.46393l.02 23.00377h-6.531V17.747l-5.114 9.8012H100.5l-5.1542-9.7811v9.7409h-6.5111V4.50418h6.9636l7.5737 14.41412 7.534-14.43022 6.963-.02415ZM144.311 15.9698c.003 1.5108-.286 3.0073-.849 4.4039-.564 1.3966-1.39 2.6658-2.434 3.735-1.043 1.0693-2.282 1.9176-3.646 2.4963-1.364.5788-2.826.8767-4.303.8767h-2.026c-1.476.004-2.939-.2896-4.305-.864-1.365-.5743-2.606-1.4182-3.653-2.4834-1.047-1.0653-1.878-2.331-2.447-3.725-.568-1.3939-.863-2.8888-.867-4.3993-.004-1.5104.283-3.0069.845-4.4038.561-1.397 1.386-2.66722 2.427-3.73807 1.041-1.07085 2.278-1.9214 3.641-2.50309 1.362-.58168 2.823-.88311 4.3-.88708h2.046c1.478-.00476 2.942.28893 4.309.86427 1.368.57533 2.61 1.421 3.657 2.48853 1.047 1.06754 1.878 2.33594 2.445 3.73264.567 1.3966.86 2.894.86 4.4064Zm-6.511 0c-.004-1.2799-.502-2.5063-1.387-3.4114-.884-.905-2.083-1.4151-3.334-1.4188h-2.026c-1.252 0-2.453.5089-3.338 1.4147-.886.9059-1.383 2.1344-1.383 3.4155 0 1.281.497 2.5096 1.383 3.4154.885.9059 2.086 1.4148 3.338 1.4148h2.006c1.254.0005 2.458-.5076 3.346-1.4129.889-.9054 1.39-2.1343 1.395-3.4173ZM170.667 27.4938h-7.416l-10.623-13.4641.02 13.4843h-6.531l-.039-23.00381h7.416l10.622 13.50441-.039-13.50441h6.531l.059 22.98361ZM15.6385 0c-3.093 0-6.11651.938384-8.68826 2.69649-2.57174 1.7581-4.57618 4.25696-5.75982 7.18058C.00677596 12.8007-.302919 16.0177.300497 19.1214c.603417 3.1037 2.092843 5.9547 4.279933 8.1923 2.18709 2.2377 4.97361 3.7615 8.00717 4.3789 3.0336.6173 6.178.3005 9.0356-.9105 2.8575-1.211 5.2999-3.2618 7.0183-5.893 1.7184-2.6312 2.6356-5.7246 2.6356-8.8891-.0037-4.2423-1.6525-8.30981-4.5845-11.30959C23.7606 1.69064 19.785.00373045 15.6385 0Zm8.2029 16.7447c-.0995.0859-.2126.154-.3344.2012-.1387.0589-.2841.0995-.4328.1208-.3395.0537-.6856.0469-1.0229-.0202-.7665-.1627-1.499-.4625-2.1638-.8855-.694-.4394-1.3461-.9448-1.9474-1.5094-.2885-.2818-.5836-.5837-.8852-.9057-.2754-.3019-.5705-.644-.8262-.9862-.0511-.0699-.1265-.1173-.2106-.1322-.0841-.015-.1706.0035-.2419.0517-.077.0492-.1324.127-.1544.2171-.022.0902-.009.1855.0364.266.2361.3824.4918.7446.7475 1.1069.2557.3622.5508.7044.8459 1.0465.5927.6838 1.2518 1.3042 1.9671 1.8516.7461.5745 1.585 1.0104 2.4786 1.288.3038.0816.6127.1421.9245.1812.0314.0014.0622.0095.0905.0236.0282.0142.0533.0342.0736.0588.0203.0246.0354.0532.0444.084.009.0309.0117.0633.0079.0952-.0007.0373-.0147.0731-.0394.1006-.5144.8877-1.1356 1.7058-1.849 2.4353-2.1835 2.2339-4.9768 3.4616-7.5144 3.4616-1.0609.0181-2.1114-.2162-3.0687-.6843l-.2164-.1006c-.0363-.0199-.0768-.0303-.118-.0303s-.08175.0104-.11805.0303l-.19671.1409c-.32085.2184-.69657.3372-1.08191.3421-.15975.0092-.31959-.0165-.46884-.0755s-.28449-.1499-.39669-.2666c-.41309-.4227-.43276-1.2277-.01967-1.9321l.11803-.2214c.01945-.0371.02963-.0786.02963-.1207 0-.0422-.01018-.0837-.02963-.1208l-.11803-.2214c-1.08191-2.0931-1.00323-4.8503.09835-7.4063.01275-.0292.03104-.0555.05382-.0775.02278-.0219.04959-.039.07887-.0502.02928-.0112.06046-.0164.09171-.0152.03125.0012.06196.0087.09034.0222.02786.0086.05321.0242.0738.0452.02059.0211.03578.047.04423.0755.22417.5563.50087 1.0888.82619 1.59.49309.7664 1.06696 1.475 1.71136 2.1132.309.3227.6375.6252.9836.9056.3344.2818.6885.5636 1.0426.8252.0704.056.1597.0812.2482.0698.0886-.0113.1691-.0581.2239-.1302.0547-.072.0793-.1634.0682-.254-.011-.0906-.0568-.173-.1273-.229-.3147-.2818-.6294-.5837-.9245-.8855-.2951-.3019-.5705-.6239-.8459-.9459-.5233-.644-.9844-1.3382-1.3769-2.073-.37644-.699-.6232-1.4632-.72787-2.2541-.05903-.3462-.05903-.7003 0-1.0465.03709-.1372.08309-.2717.1377-.4025l.07868-.1208c.22731-.2824.47029-.5512.72779-.805 3.2064-3.30067 7.6718-4.38746 10.8192-2.65664l.236.12075c.0363.01991.0769.03033.118.03033.0412 0 .0818-.01042.1181-.03033l.2164-.14088c.7278-.48301 1.554-.50314 2.0064-.04025.4524.4629.4328 1.34843-.0787 2.11321l-.1573.20121c-.0223.0356-.0357.0762-.0391.1183-.0034.0421.0032.0844.0194.1233l.118.2415c.8065 1.7509.8459 3.9245.1377 6.078Z" fill="#86FF2E"/></svg>